<svg xmlns="http://www.w3.org/2000/svg" xmlns:xlink="http://www.w3.org/1999/xlink" version="1.0" viewBox="0 0 375 375" style="fill: rgb(0, 0, 0);" original_string_length="49709" width="530.7718886882044px" height="530.7718886882044px"><defs><clipPath id="__id0_s7joa0k1w"><path d="M 137.902344 0 L 157 0 L 157 126.75 L 137.902344 126.75 Z M 137.902344 0"/></clipPath><clipPath id="__id1_s7joa0k1w"><path d="M 188 0 L 207 0 L 207 126.75 L 188 126.75 Z M 188 0"/></clipPath><clipPath id="__id2_s7joa0k1w"><path d="M 213 0 L 231.652344 0 L 231.652344 81 L 213 81 Z M 213 0"/></clipPath><clipPath id="__id3_s7joa0k1w"><path d="M0 0H351V139H0z"/></clipPath><clipPath id="__id4_s7joa0k1w"><path d="M0 0H229V27H0z"/></clipPath><clipPath id="__id5_s7joa0k1w"><path d="M 137.902344 255.828125 L 225.652344 255.828125 L 225.652344 375 L 137.902344 375 Z M 137.902344 255.828125"/></clipPath><clipPath id="__id6_s7joa0k1w"><path d="M 0.902344 0.828125 L 18 0.828125 L 18 119.996094 L 0.902344 119.996094 Z M 0.902344 0.828125"/></clipPath><clipPath id="__id7_s7joa0k1w"><path d="M 24 27 L 42 27 L 42 119.996094 L 24 119.996094 Z M 24 27"/></clipPath><clipPath id="__id8_s7joa0k1w"><path d="M 48 0.828125 L 66 0.828125 L 66 119.996094 L 48 119.996094 Z M 48 0.828125"/></clipPath><clipPath id="__id9_s7joa0k1w"><path d="M 71 44 L 88.652344 44 L 88.652344 119.996094 L 71 119.996094 Z M 71 44"/></clipPath><clipPath id="__id10_s7joa0k1w"><path d="M0 0H89V120H0z"/></clipPath></defs><g clip-path="url(#__id0_s7joa0k1w)"><path d="M 156.15625 0.0234375 L 137.902344 0.0234375 L 137.902344 9.113281 L 156.15625 9.113281 Z M 156.15625 12.964844 L 137.902344 12.964844 L 137.902344 40.507812 L 156.15625 40.507812 Z M 137.902344 126.726562 L 156.15625 126.726562 L 156.15625 48.269531 L 137.902344 48.269531 Z M 137.902344 126.726562" fill-rule="evenodd" style="fill: rgb(0, 174, 239);"/></g><path d="M 181.320312 0.0234375 L 163.066406 0.0234375 L 163.066406 9.113281 L 181.320312 9.113281 Z M 181.320312 12.964844 L 163.066406 12.964844 L 163.066406 40.507812 L 181.320312 40.507812 Z M 163.066406 98.574219 L 181.320312 98.574219 L 181.320312 48.273438 L 163.066406 48.273438 Z M 163.066406 98.574219" fill-rule="evenodd" style="fill: rgb(236, 0, 140);"/><g clip-path="url(#__id1_s7joa0k1w)"><path d="M 206.488281 0.0234375 L 188.234375 0.0234375 L 188.234375 9.113281 L 206.488281 9.113281 Z M 206.488281 12.964844 L 188.234375 12.964844 L 188.234375 40.507812 L 206.488281 40.507812 Z M 188.234375 126.726562 L 206.488281 126.726562 L 206.488281 48.269531 L 188.234375 48.269531 Z M 188.234375 126.726562" fill-rule="evenodd" style="fill: rgb(255, 242, 0);"/></g><g clip-path="url(#__id2_s7joa0k1w)"><path d="M 231.652344 0.0234375 L 213.398438 0.0234375 L 213.398438 9.113281 L 231.652344 9.113281 Z M 231.652344 12.964844 L 213.398438 12.964844 L 213.398438 40.507812 L 231.652344 40.507812 Z M 213.398438 80.023438 L 231.652344 80.023438 L 231.652344 48.273438 L 213.398438 48.273438 Z M 213.398438 80.023438" fill-rule="evenodd" style="fill: rgb(35, 31, 32);"/></g><g><g clip-path="url(#__id3_s7joa0k1w)" transform="matrix(1, 0, 0, 1, 12, 106)"><g style="fill: rgb(52, 52, 52);"><g><g><path d="M 1.777344 -27.128906 C 1.777344 -33.132812 2.992188 -38.402344 5.421875 -42.941406 C 7.878906 -47.53125 11.300781 -51.09375 15.683594 -53.628906 C 20.042969 -56.152344 25.011719 -57.414062 30.582031 -57.414062 C 37.769531 -57.414062 43.738281 -55.640625 48.484375 -52.089844 C 53.265625 -48.511719 56.417969 -43.574219 57.9375 -37.277344 L 58.671875 -34.230469 L 44 -34.230469 L 43.496094 -36.03125 C 42.730469 -38.765625 41.253906 -40.914062 39.058594 -42.484375 C 36.824219 -44.085938 34 -44.886719 30.582031 -44.886719 C 26.183594 -44.886719 22.652344 -43.398438 19.988281 -40.425781 C 17.25 -37.375 15.882812 -32.945312 15.882812 -27.128906 C 15.882812 -21.242188 17.253906 -16.757812 19.996094 -13.671875 C 22.660156 -10.675781 26.191406 -9.175781 30.582031 -9.175781 C 34.007812 -9.175781 36.824219 -9.945312 39.03125 -11.492188 C 41.1875 -13 42.675781 -15.183594 43.5 -18.046875 L 44.015625 -19.828125 L 58.734375 -19.828125 L 57.925781 -16.738281 C 56.335938 -10.667969 53.144531 -5.800781 48.355469 -2.136719 C 43.574219 1.523438 37.648438 3.355469 30.582031 3.355469 C 25.011719 3.355469 20.042969 2.09375 15.683594 -0.429688 C 11.296875 -2.96875 7.875 -6.550781 5.417969 -11.175781 C 2.988281 -15.746094 1.777344 -21.0625 1.777344 -27.128906 Z M 6.707031 -27.128906 C 6.707031 -21.882812 7.730469 -17.335938 9.773438 -13.488281 C 11.789062 -9.695312 14.582031 -6.765625 18.152344 -4.699219 C 21.75 -2.617188 25.894531 -1.578125 30.582031 -1.578125 C 36.535156 -1.578125 41.460938 -3.070312 45.359375 -6.054688 C 49.25 -9.03125 51.847656 -13.007812 53.152344 -17.988281 L 55.539062 -17.363281 L 55.539062 -14.894531 L 45.871094 -14.894531 L 45.871094 -17.363281 L 48.242188 -16.679688 C 47.09375 -12.699219 44.96875 -9.625 41.859375 -7.449219 C 38.804688 -5.3125 35.046875 -4.242188 30.582031 -4.242188 C 24.714844 -4.242188 19.957031 -6.292969 16.308594 -10.398438 C 12.734375 -14.414062 10.949219 -19.992188 10.949219 -27.128906 C 10.949219 -34.203125 12.738281 -39.734375 16.316406 -43.722656 C 19.960938 -47.785156 24.71875 -49.816406 30.582031 -49.816406 C 35.054688 -49.816406 38.839844 -48.710938 41.929688 -46.496094 C 45.066406 -44.253906 47.171875 -41.207031 48.246094 -37.363281 L 45.871094 -36.699219 L 45.871094 -39.164062 L 55.539062 -39.164062 L 55.539062 -36.699219 L 53.140625 -36.117188 C 51.898438 -41.265625 49.363281 -45.269531 45.527344 -48.140625 C 41.660156 -51.035156 36.675781 -52.480469 30.582031 -52.480469 C 25.894531 -52.480469 21.75 -51.441406 18.152344 -49.359375 C 14.578125 -47.292969 11.785156 -44.378906 9.769531 -40.613281 C 7.730469 -36.800781 6.707031 -32.304688 6.707031 -27.128906 Z M 6.707031 -27.128906" transform="translate(1.959633, 102.307692)" style="fill: inherit;"/></g></g></g><g style="fill: rgb(52, 52, 52);"><g><g><path d="M 14.375 -46.402344 C 16.171875 -49.921875 18.742188 -52.65625 22.085938 -54.609375 C 25.398438 -56.546875 29.378906 -57.511719 34.035156 -57.511719 L 36.5 -57.511719 L 36.5 -43.308594 L 31.667969 -43.308594 C 27.355469 -43.308594 24.1875 -42.207031 22.160156 -40.007812 C 20.078125 -37.75 19.039062 -34.214844 19.039062 -29.398438 L 19.039062 2.464844 L 5.128906 2.464844 L 5.128906 -56.527344 L 19.039062 -56.527344 L 19.039062 -45.28125 L 16.574219 -45.28125 Z M 18.769531 -44.15625 L 14.105469 -45.28125 L 14.105469 -54.058594 L 16.574219 -54.058594 L 16.574219 -51.59375 L 7.597656 -51.59375 L 7.597656 -54.058594 L 10.0625 -54.058594 L 10.0625 0 L 7.597656 0 L 7.597656 -2.464844 L 16.574219 -2.464844 L 16.574219 0 L 14.105469 0 L 14.105469 -29.398438 C 14.105469 -35.5 15.582031 -40.148438 18.53125 -43.351562 C 21.535156 -46.609375 25.914062 -48.238281 31.667969 -48.238281 L 34.035156 -48.238281 L 34.035156 -45.773438 L 31.566406 -45.773438 L 31.566406 -55.046875 L 34.035156 -55.046875 L 34.035156 -52.578125 C 30.269531 -52.578125 27.117188 -51.835938 24.574219 -50.351562 C 22.0625 -48.882812 20.128906 -46.820312 18.769531 -44.15625 Z M 18.769531 -44.15625" transform="translate(59.372566, 102.307692)" style="fill: inherit;"/></g></g></g><g style="fill: rgb(52, 52, 52);"><g><g><path d="M 12.234375 -60.371094 C 9.839844 -60.371094 7.8125 -61.207031 6.148438 -62.871094 C 4.484375 -64.535156 3.648438 -66.566406 3.648438 -68.957031 C 3.648438 -71.347656 4.484375 -73.375 6.148438 -75.039062 C 7.8125 -76.707031 9.839844 -77.539062 12.234375 -77.539062 C 14.570312 -77.539062 16.558594 -76.699219 18.195312 -75.015625 C 19.808594 -73.351562 20.617188 -71.332031 20.617188 -68.957031 C 20.617188 -66.578125 19.808594 -64.558594 18.195312 -62.894531 C 16.558594 -61.214844 14.570312 -60.371094 12.234375 -60.371094 Z M 12.234375 -65.304688 C 13.183594 -65.304688 13.988281 -65.648438 14.65625 -66.335938 C 15.34375 -67.039062 15.683594 -67.914062 15.683594 -68.957031 C 15.683594 -69.996094 15.34375 -70.871094 14.65625 -71.578125 C 13.988281 -72.261719 13.183594 -72.605469 12.234375 -72.605469 C 11.203125 -72.605469 10.339844 -72.253906 9.636719 -71.550781 C 8.933594 -70.851562 8.582031 -69.984375 8.582031 -68.957031 C 8.582031 -67.925781 8.933594 -67.0625 9.636719 -66.359375 C 10.339844 -65.65625 11.203125 -65.304688 12.234375 -65.304688 Z M 19.039062 -54.058594 L 19.039062 2.464844 L 5.128906 2.464844 L 5.128906 -56.527344 L 19.039062 -56.527344 Z M 14.105469 -54.058594 L 16.574219 -54.058594 L 16.574219 -51.59375 L 7.597656 -51.59375 L 7.597656 -54.058594 L 10.0625 -54.058594 L 10.0625 0 L 7.597656 0 L 7.597656 -2.464844 L 16.574219 -2.464844 L 16.574219 0 L 14.105469 0 Z M 14.105469 -54.058594" transform="translate(93.701836, 102.307692)" style="fill: inherit;"/></g></g></g><g style="fill: rgb(52, 52, 52);"><g><g><path d="M 1.777344 -27.226562 C 1.777344 -33.164062 2.992188 -38.402344 5.421875 -42.941406 C 7.875 -47.523438 11.257812 -51.085938 15.570312 -53.621094 C 19.867188 -56.148438 24.640625 -57.414062 29.890625 -57.414062 C 35.070312 -57.414062 39.597656 -56.28125 43.46875 -54.019531 C 47.34375 -51.75 50.246094 -48.875 52.171875 -45.390625 L 50.015625 -44.195312 L 47.546875 -44.195312 L 47.546875 -56.527344 L 61.558594 -56.527344 L 61.558594 2.464844 L 47.546875 2.464844 L 47.546875 -10.0625 L 50.015625 -10.0625 L 52.164062 -8.851562 C 50.171875 -5.308594 47.226562 -2.390625 43.324219 -0.09375 C 39.421875 2.203125 34.910156 3.355469 29.792969 3.355469 C 24.527344 3.355469 19.761719 2.050781 15.484375 -0.558594 C 11.214844 -3.164062 7.859375 -6.804688 5.410156 -11.484375 C 2.988281 -16.117188 1.777344 -21.363281 1.777344 -27.226562 Z M 6.707031 -27.226562 C 6.707031 -22.171875 7.734375 -17.6875 9.78125 -13.769531 C 11.804688 -9.898438 14.5625 -6.898438 18.054688 -4.769531 C 21.539062 -2.640625 25.453125 -1.578125 29.792969 -1.578125 C 34.011719 -1.578125 37.691406 -2.5 40.824219 -4.34375 C 43.960938 -6.191406 46.308594 -8.5 47.867188 -11.269531 L 52.480469 -19.476562 L 52.480469 0 L 50.015625 0 L 50.015625 -2.464844 L 59.089844 -2.464844 L 59.089844 0 L 56.625 0 L 56.625 -54.058594 L 59.089844 -54.058594 L 59.089844 -51.59375 L 50.015625 -51.59375 L 50.015625 -54.058594 L 52.480469 -54.058594 L 52.480469 -44.195312 L 47.855469 -43 C 46.367188 -45.695312 44.070312 -47.949219 40.976562 -49.761719 C 37.875 -51.574219 34.179688 -52.480469 29.890625 -52.480469 C 25.539062 -52.480469 21.597656 -51.445312 18.070312 -49.367188 C 14.554688 -47.300781 11.789062 -44.382812 9.769531 -40.613281 C 7.730469 -36.800781 6.707031 -32.339844 6.707031 -27.226562 Z M 47.546875 -27.128906 C 47.546875 -30.789062 46.828125 -33.945312 45.382812 -36.605469 C 43.960938 -39.222656 42.050781 -41.222656 39.65625 -42.601562 C 37.246094 -43.992188 34.582031 -44.6875 31.667969 -44.6875 C 28.75 -44.6875 26.097656 -44.007812 23.714844 -42.644531 C 21.359375 -41.296875 19.46875 -39.316406 18.050781 -36.703125 C 16.605469 -34.046875 15.882812 -30.886719 15.882812 -27.226562 C 15.882812 -23.496094 16.605469 -20.285156 18.054688 -17.59375 C 19.480469 -14.941406 21.371094 -12.929688 23.734375 -11.550781 C 26.113281 -10.164062 28.757812 -9.46875 31.667969 -9.46875 C 34.582031 -9.46875 37.246094 -10.167969 39.65625 -11.558594 C 42.046875 -12.933594 43.953125 -14.945312 45.375 -17.59375 C 46.824219 -20.285156 47.546875 -23.464844 47.546875 -27.128906 Z M 52.480469 -27.128906 C 52.480469 -22.636719 51.5625 -18.679688 49.722656 -15.257812 C 47.855469 -11.785156 45.324219 -9.128906 42.121094 -7.285156 C 38.945312 -5.453125 35.460938 -4.539062 31.667969 -4.539062 C 27.867188 -4.539062 24.394531 -5.457031 21.25 -7.289062 C 18.085938 -9.136719 15.574219 -11.789062 13.710938 -15.257812 C 11.871094 -18.679688 10.949219 -22.667969 10.949219 -27.226562 C 10.949219 -31.722656 11.871094 -35.667969 13.714844 -39.058594 C 15.582031 -42.496094 18.101562 -45.117188 21.269531 -46.929688 C 24.410156 -48.722656 27.875 -49.621094 31.667969 -49.621094 C 35.460938 -49.621094 38.945312 -48.707031 42.121094 -46.875 C 45.320312 -45.03125 47.851562 -42.394531 49.714844 -38.960938 C 51.558594 -35.566406 52.480469 -31.625 52.480469 -27.128906 Z M 52.480469 -27.128906" transform="translate(115.502803, 102.307692)" style="fill: inherit;"/></g></g></g><g style="fill: rgb(52, 52, 52);"><g><g><path d="M 21.011719 -46.660156 L 21.011719 -14.796875 C 21.011719 -12.863281 21.320312 -11.59375 21.941406 -10.992188 C 22.582031 -10.371094 23.949219 -10.0625 26.042969 -10.0625 L 35.121094 -10.0625 L 35.121094 2.464844 L 24.5625 2.464844 C 18.921875 2.464844 14.617188 1.097656 11.648438 -1.636719 C 8.617188 -4.429688 7.101562 -8.816406 7.101562 -14.796875 L 7.101562 -46.660156 L 9.570312 -46.660156 L 9.570312 -44.195312 L 0.0976562 -44.195312 L 0.0976562 -56.527344 L 9.570312 -56.527344 L 9.570312 -54.058594 L 7.101562 -54.058594 L 7.101562 -70.140625 L 21.011719 -70.140625 L 21.011719 -54.058594 L 18.546875 -54.058594 L 18.546875 -56.527344 L 35.121094 -56.527344 L 35.121094 -44.195312 L 18.546875 -44.195312 L 18.546875 -46.660156 Z M 16.078125 -49.128906 L 32.652344 -49.128906 L 32.652344 -46.660156 L 30.1875 -46.660156 L 30.1875 -54.058594 L 32.652344 -54.058594 L 32.652344 -51.59375 L 16.078125 -51.59375 L 16.078125 -67.671875 L 18.546875 -67.671875 L 18.546875 -65.207031 L 9.570312 -65.207031 L 9.570312 -67.671875 L 12.035156 -67.671875 L 12.035156 -51.59375 L 2.566406 -51.59375 L 2.566406 -54.058594 L 5.03125 -54.058594 L 5.03125 -46.660156 L 2.566406 -46.660156 L 2.566406 -49.128906 L 12.035156 -49.128906 L 12.035156 -14.796875 C 12.035156 -10.257812 13.019531 -7.082031 14.988281 -5.265625 C 17.015625 -3.398438 20.207031 -2.464844 24.5625 -2.464844 L 32.652344 -2.464844 L 32.652344 0 L 30.1875 0 L 30.1875 -7.597656 L 32.652344 -7.597656 L 32.652344 -5.128906 L 26.042969 -5.128906 C 22.613281 -5.128906 20.101562 -5.902344 18.503906 -7.453125 C 16.886719 -9.023438 16.078125 -11.472656 16.078125 -14.796875 Z M 16.078125 -49.128906" transform="translate(179.722463, 102.307692)" style="fill: inherit;"/></g></g></g><g style="fill: rgb(52, 52, 52);"><g><g><path d="M 12.234375 -60.371094 C 9.839844 -60.371094 7.8125 -61.207031 6.148438 -62.871094 C 4.484375 -64.535156 3.648438 -66.566406 3.648438 -68.957031 C 3.648438 -71.347656 4.484375 -73.375 6.148438 -75.039062 C 7.8125 -76.707031 9.839844 -77.539062 12.234375 -77.539062 C 14.570312 -77.539062 16.558594 -76.699219 18.195312 -75.015625 C 19.808594 -73.351562 20.617188 -71.332031 20.617188 -68.957031 C 20.617188 -66.578125 19.808594 -64.558594 18.195312 -62.894531 C 16.558594 -61.214844 14.570312 -60.371094 12.234375 -60.371094 Z M 12.234375 -65.304688 C 13.183594 -65.304688 13.988281 -65.648438 14.65625 -66.335938 C 15.34375 -67.039062 15.683594 -67.914062 15.683594 -68.957031 C 15.683594 -69.996094 15.34375 -70.871094 14.65625 -71.578125 C 13.988281 -72.261719 13.183594 -72.605469 12.234375 -72.605469 C 11.203125 -72.605469 10.339844 -72.253906 9.636719 -71.550781 C 8.933594 -70.851562 8.582031 -69.984375 8.582031 -68.957031 C 8.582031 -67.925781 8.933594 -67.0625 9.636719 -66.359375 C 10.339844 -65.65625 11.203125 -65.304688 12.234375 -65.304688 Z M 19.039062 -54.058594 L 19.039062 2.464844 L 5.128906 2.464844 L 5.128906 -56.527344 L 19.039062 -56.527344 Z M 14.105469 -54.058594 L 16.574219 -54.058594 L 16.574219 -51.59375 L 7.597656 -51.59375 L 7.597656 -54.058594 L 10.0625 -54.058594 L 10.0625 0 L 7.597656 0 L 7.597656 -2.464844 L 16.574219 -2.464844 L 16.574219 0 L 14.105469 0 Z M 14.105469 -54.058594" transform="translate(213.163898, 102.307692)" style="fill: inherit;"/></g></g></g><g style="fill: rgb(52, 52, 52);"><g><g><path d="M 25.40625 -9.136719 L 42.765625 -56.527344 L 57.675781 -56.527344 L 34.53125 2.464844 L 20.710938 2.464844 L -2.433594 -56.527344 L 12.570312 -56.527344 L 30.035156 -9.140625 L 27.71875 -8.285156 Z M 27.726562 -1.136719 L 8.535156 -53.207031 L 10.851562 -54.058594 L 10.851562 -51.59375 L 1.183594 -51.59375 L 1.183594 -54.058594 L 3.480469 -54.960938 L 24.6875 -0.902344 L 22.394531 0 L 22.394531 -2.464844 L 32.851562 -2.464844 L 32.851562 0 L 30.554688 -0.902344 L 51.761719 -54.960938 L 54.058594 -54.058594 L 54.058594 -51.59375 L 44.492188 -51.59375 L 44.492188 -54.058594 L 46.808594 -53.210938 L 30.035156 -7.4375 Z M 27.726562 -1.136719" transform="translate(234.964865, 102.307692)" style="fill: inherit;"/></g></g></g><g style="fill: rgb(52, 52, 52);"><g><g><path d="M 59.386719 -29.101562 C 59.386719 -27.308594 59.285156 -25.414062 59.078125 -23.421875 L 58.847656 -21.210938 L 13.417969 -21.210938 L 13.417969 -23.675781 L 15.878906 -23.828125 C 16.164062 -19.171875 17.71875 -15.570312 20.542969 -13.027344 C 23.394531 -10.460938 26.871094 -9.175781 30.976562 -9.175781 C 34.339844 -9.175781 37.109375 -9.929688 39.285156 -11.445312 C 41.441406 -12.949219 42.960938 -14.960938 43.839844 -17.480469 L 44.414062 -19.136719 L 59.082031 -19.136719 L 58.210938 -16.011719 C 56.613281 -10.277344 53.421875 -5.613281 48.632812 -2.023438 C 43.855469 1.5625 37.96875 3.355469 30.976562 3.355469 C 25.410156 3.355469 20.417969 2.097656 15.996094 -0.421875 C 11.542969 -2.957031 8.050781 -6.550781 5.527344 -11.203125 C 3.027344 -15.8125 1.777344 -21.121094 1.777344 -27.128906 C 1.777344 -33.128906 2.988281 -38.414062 5.417969 -42.984375 C 7.878906 -47.621094 11.34375 -51.191406 15.808594 -53.695312 C 20.230469 -56.175781 25.285156 -57.414062 30.976562 -57.414062 C 36.539062 -57.414062 41.480469 -56.1875 45.804688 -53.738281 C 50.160156 -51.273438 53.515625 -47.875 55.878906 -43.550781 C 58.21875 -39.269531 59.386719 -34.453125 59.386719 -29.101562 Z M 54.453125 -29.101562 C 54.453125 -33.613281 53.484375 -37.644531 51.550781 -41.1875 C 49.636719 -44.6875 46.910156 -47.441406 43.375 -49.449219 C 39.804688 -51.46875 35.671875 -52.480469 30.976562 -52.480469 C 26.144531 -52.480469 21.894531 -51.453125 18.222656 -49.394531 C 14.601562 -47.359375 11.785156 -44.453125 9.773438 -40.671875 C 7.730469 -36.824219 6.707031 -32.308594 6.707031 -27.128906 C 6.707031 -21.957031 7.761719 -17.433594 9.863281 -13.558594 C 11.941406 -9.726562 14.796875 -6.777344 18.433594 -4.707031 C 22.101562 -2.621094 26.28125 -1.578125 30.976562 -1.578125 C 36.871094 -1.578125 41.773438 -3.042969 45.675781 -5.96875 C 49.566406 -8.886719 52.164062 -12.675781 53.460938 -17.332031 L 55.835938 -16.671875 L 55.835938 -14.207031 L 46.167969 -14.207031 L 46.167969 -16.671875 L 48.496094 -15.863281 C 47.269531 -12.332031 45.136719 -9.511719 42.101562 -7.398438 C 39.082031 -5.292969 35.371094 -4.242188 30.976562 -4.242188 C 25.609375 -4.242188 21.03125 -5.949219 17.242188 -9.363281 C 13.421875 -12.804688 11.324219 -17.527344 10.953125 -23.523438 L 10.792969 -26.140625 L 56.625 -26.140625 L 56.625 -23.675781 L 54.171875 -23.929688 C 54.359375 -25.753906 54.453125 -27.476562 54.453125 -29.101562 Z M 45.179688 -30.976562 C 45.179688 -33.929688 44.546875 -36.445312 43.277344 -38.515625 C 42.011719 -40.578125 40.292969 -42.144531 38.121094 -43.214844 C 35.867188 -44.328125 33.355469 -44.886719 30.582031 -44.886719 C 26.679688 -44.886719 23.367188 -43.652344 20.648438 -41.183594 C 17.933594 -38.722656 16.375 -35.246094 15.972656 -30.753906 L 13.515625 -30.976562 L 13.515625 -33.441406 L 47.648438 -33.441406 L 47.648438 -30.976562 Z M 50.113281 -28.507812 L 10.816406 -28.507812 L 11.058594 -31.195312 C 11.574219 -36.964844 13.667969 -41.511719 17.332031 -44.835938 C 20.992188 -48.15625 25.410156 -49.816406 30.582031 -49.816406 C 34.121094 -49.816406 37.363281 -49.09375 40.304688 -47.640625 C 43.328125 -46.148438 45.71875 -43.964844 47.480469 -41.09375 C 49.238281 -38.234375 50.113281 -34.859375 50.113281 -30.976562 Z M 50.113281 -28.507812" transform="translate(287.839988, 102.307692)" style="fill: inherit;"/></g></g></g><g style="fill: rgb(1, 0, 0);"><g><g><path d="M 4.25 -27.125 C 4.25 -32.71875 5.363281 -37.601562 7.59375 -41.78125 C 9.832031 -45.957031 12.941406 -49.195312 16.921875 -51.5 C 20.898438 -53.800781 25.453125 -54.953125 30.578125 -54.953125 C 37.222656 -54.953125 42.695312 -53.335938 47 -50.109375 C 51.3125 -46.890625 54.160156 -42.421875 55.546875 -36.703125 L 45.875 -36.703125 C 44.957031 -39.992188 43.164062 -42.59375 40.5 -44.5 C 37.832031 -46.40625 34.523438 -47.359375 30.578125 -47.359375 C 25.453125 -47.359375 21.3125 -45.597656 18.15625 -42.078125 C 15 -38.554688 13.421875 -33.570312 13.421875 -27.125 C 13.421875 -20.613281 15 -15.582031 18.15625 -12.03125 C 21.3125 -8.476562 25.453125 -6.703125 30.578125 -6.703125 C 34.523438 -6.703125 37.8125 -7.625 40.4375 -9.46875 C 43.070312 -11.3125 44.882812 -13.941406 45.875 -17.359375 L 55.546875 -17.359375 C 54.097656 -11.835938 51.203125 -7.414062 46.859375 -4.09375 C 42.515625 -0.769531 37.085938 0.890625 30.578125 0.890625 C 25.453125 0.890625 20.898438 -0.257812 16.921875 -2.5625 C 12.941406 -4.863281 9.832031 -8.117188 7.59375 -12.328125 C 5.363281 -16.535156 4.25 -21.46875 4.25 -27.125 Z M 4.25 -27.125" transform="translate(1.959633, 102.307692)" style="fill: inherit;"/></g></g></g><g style="fill: rgb(1, 0, 0);"><g><g><path d="M 16.578125 -45.28125 C 18.148438 -48.375 20.398438 -50.773438 23.328125 -52.484375 C 26.253906 -54.191406 29.820312 -55.046875 34.03125 -55.046875 L 34.03125 -45.78125 L 31.671875 -45.78125 C 21.609375 -45.78125 16.578125 -40.320312 16.578125 -29.40625 L 16.578125 0 L 7.59375 0 L 7.59375 -54.0625 L 16.578125 -54.0625 Z M 16.578125 -45.28125" transform="translate(59.372566, 102.307692)" style="fill: inherit;"/></g></g></g><g style="fill: rgb(1, 0, 0);"><g><g><path d="M 12.234375 -62.84375 C 10.523438 -62.84375 9.078125 -63.429688 7.890625 -64.609375 C 6.703125 -65.796875 6.109375 -67.242188 6.109375 -68.953125 C 6.109375 -70.671875 6.703125 -72.117188 7.890625 -73.296875 C 9.078125 -74.484375 10.523438 -75.078125 12.234375 -75.078125 C 13.878906 -75.078125 15.273438 -74.484375 16.421875 -73.296875 C 17.578125 -72.117188 18.15625 -70.671875 18.15625 -68.953125 C 18.15625 -67.242188 17.578125 -65.796875 16.421875 -64.609375 C 15.273438 -63.429688 13.878906 -62.84375 12.234375 -62.84375 Z M 16.578125 -54.0625 L 16.578125 0 L 7.59375 0 L 7.59375 -54.0625 Z M 16.578125 -54.0625" transform="translate(93.701836, 102.307692)" style="fill: inherit;"/></g></g></g><g style="fill: rgb(1, 0, 0);"><g><g><path d="M 4.25 -27.234375 C 4.25 -32.753906 5.363281 -37.601562 7.59375 -41.78125 C 9.832031 -45.957031 12.90625 -49.195312 16.8125 -51.5 C 20.726562 -53.800781 25.085938 -54.953125 29.890625 -54.953125 C 34.628906 -54.953125 38.738281 -53.929688 42.21875 -51.890625 C 45.707031 -49.847656 48.304688 -47.285156 50.015625 -44.203125 L 50.015625 -54.0625 L 59.09375 -54.0625 L 59.09375 0 L 50.015625 0 L 50.015625 -10.0625 C 48.242188 -6.90625 45.597656 -4.289062 42.078125 -2.21875 C 38.554688 -0.144531 34.460938 0.890625 29.796875 0.890625 C 24.992188 0.890625 20.648438 -0.289062 16.765625 -2.65625 C 12.890625 -5.03125 9.832031 -8.351562 7.59375 -12.625 C 5.363281 -16.90625 4.25 -21.773438 4.25 -27.234375 Z M 50.015625 -27.125 C 50.015625 -31.207031 49.191406 -34.757812 47.546875 -37.78125 C 45.898438 -40.8125 43.679688 -43.128906 40.890625 -44.734375 C 38.097656 -46.347656 35.023438 -47.15625 31.671875 -47.15625 C 28.316406 -47.15625 25.253906 -46.363281 22.484375 -44.78125 C 19.722656 -43.207031 17.519531 -40.90625 15.875 -37.875 C 14.238281 -34.851562 13.421875 -31.304688 13.421875 -27.234375 C 13.421875 -23.085938 14.238281 -19.484375 15.875 -16.421875 C 17.519531 -13.367188 19.722656 -11.035156 22.484375 -9.421875 C 25.253906 -7.804688 28.316406 -7 31.671875 -7 C 35.023438 -7 38.097656 -7.804688 40.890625 -9.421875 C 43.679688 -11.035156 45.898438 -13.367188 47.546875 -16.421875 C 49.191406 -19.484375 50.015625 -23.050781 50.015625 -27.125 Z M 50.015625 -27.125" transform="translate(115.502803, 102.307692)" style="fill: inherit;"/></g></g></g><g style="fill: rgb(1, 0, 0);"><g><g><path d="M 18.546875 -46.671875 L 18.546875 -14.796875 C 18.546875 -12.171875 19.101562 -10.3125 20.21875 -9.21875 C 21.34375 -8.132812 23.285156 -7.59375 26.046875 -7.59375 L 32.65625 -7.59375 L 32.65625 0 L 24.5625 0 C 19.5625 0 15.8125 -1.148438 13.3125 -3.453125 C 10.8125 -5.753906 9.5625 -9.535156 9.5625 -14.796875 L 9.5625 -46.671875 L 2.5625 -46.671875 L 2.5625 -54.0625 L 9.5625 -54.0625 L 9.5625 -67.671875 L 18.546875 -67.671875 L 18.546875 -54.0625 L 32.65625 -54.0625 L 32.65625 -46.671875 Z M 18.546875 -46.671875" transform="translate(179.722463, 102.307692)" style="fill: inherit;"/></g></g></g><g style="fill: rgb(1, 0, 0);"><g><g><path d="M 12.234375 -62.84375 C 10.523438 -62.84375 9.078125 -63.429688 7.890625 -64.609375 C 6.703125 -65.796875 6.109375 -67.242188 6.109375 -68.953125 C 6.109375 -70.671875 6.703125 -72.117188 7.890625 -73.296875 C 9.078125 -74.484375 10.523438 -75.078125 12.234375 -75.078125 C 13.878906 -75.078125 15.273438 -74.484375 16.421875 -73.296875 C 17.578125 -72.117188 18.15625 -70.671875 18.15625 -68.953125 C 18.15625 -67.242188 17.578125 -65.796875 16.421875 -64.609375 C 15.273438 -63.429688 13.878906 -62.84375 12.234375 -62.84375 Z M 16.578125 -54.0625 L 16.578125 0 L 7.59375 0 L 7.59375 -54.0625 Z M 16.578125 -54.0625" transform="translate(213.163898, 102.307692)" style="fill: inherit;"/></g></g></g><g style="fill: rgb(1, 0, 0);"><g><g><path d="M 27.71875 -8.28125 L 44.5 -54.0625 L 54.0625 -54.0625 L 32.859375 0 L 22.390625 0 L 1.1875 -54.0625 L 10.859375 -54.0625 Z M 27.71875 -8.28125" transform="translate(234.964865, 102.307692)" style="fill: inherit;"/></g></g></g><g style="fill: rgb(1, 0, 0);"><g><g><path d="M 56.921875 -29.109375 C 56.921875 -27.390625 56.820312 -25.578125 56.625 -23.671875 L 13.421875 -23.671875 C 13.742188 -18.347656 15.566406 -14.1875 18.890625 -11.1875 C 22.210938 -8.195312 26.242188 -6.703125 30.984375 -6.703125 C 34.859375 -6.703125 38.09375 -7.609375 40.6875 -9.421875 C 43.289062 -11.234375 45.117188 -13.648438 46.171875 -16.671875 L 55.84375 -16.671875 C 54.394531 -11.472656 51.5 -7.242188 47.15625 -3.984375 C 42.8125 -0.734375 37.421875 0.890625 30.984375 0.890625 C 25.847656 0.890625 21.253906 -0.257812 17.203125 -2.5625 C 13.160156 -4.863281 9.988281 -8.132812 7.6875 -12.375 C 5.394531 -16.625 4.25 -21.539062 4.25 -27.125 C 4.25 -32.71875 5.363281 -37.617188 7.59375 -41.828125 C 9.832031 -46.035156 12.972656 -49.273438 17.015625 -51.546875 C 21.054688 -53.816406 25.710938 -54.953125 30.984375 -54.953125 C 36.109375 -54.953125 40.644531 -53.832031 44.59375 -51.59375 C 48.539062 -49.363281 51.582031 -46.289062 53.71875 -42.375 C 55.851562 -38.457031 56.921875 -34.035156 56.921875 -29.109375 Z M 47.65625 -30.984375 C 47.65625 -34.398438 46.894531 -37.335938 45.375 -39.796875 C 43.863281 -42.265625 41.804688 -44.140625 39.203125 -45.421875 C 36.609375 -46.710938 33.734375 -47.359375 30.578125 -47.359375 C 26.046875 -47.359375 22.179688 -45.910156 18.984375 -43.015625 C 15.796875 -40.117188 13.972656 -36.109375 13.515625 -30.984375 Z M 47.65625 -30.984375" transform="translate(287.839988, 102.307692)" style="fill: inherit;"/></g></g></g></g></g><g><g clip-path="url(#__id4_s7joa0k1w)" transform="matrix(1, 0, 0, 1, 74, 220)" style="fill: rgb(1, 0, 0);"><g><g><g><path d="M 8.390625 0.203125 C 7.335938 0.203125 6.351562 0.0078125 5.4375 -0.375 C 4.53125 -0.757812 3.734375 -1.289062 3.046875 -1.96875 C 2.359375 -2.65625 1.816406 -3.445312 1.421875 -4.34375 C 1.023438 -5.238281 0.828125 -6.207031 0.828125 -7.25 C 0.828125 -8.28125 1.023438 -9.242188 1.421875 -10.140625 C 1.816406 -11.035156 2.359375 -11.828125 3.046875 -12.515625 C 3.734375 -13.203125 4.53125 -13.738281 5.4375 -14.125 C 6.351562 -14.507812 7.335938 -14.703125 8.390625 -14.703125 C 9.035156 -14.703125 9.660156 -14.628906 10.265625 -14.484375 C 10.867188 -14.347656 11.429688 -14.144531 11.953125 -13.875 C 12.148438 -13.757812 12.300781 -13.609375 12.40625 -13.421875 C 12.507812 -13.234375 12.5625 -13.046875 12.5625 -12.859375 C 12.5625 -12.523438 12.453125 -12.226562 12.234375 -11.96875 C 12.015625 -11.707031 11.734375 -11.578125 11.390625 -11.578125 C 11.273438 -11.578125 11.160156 -11.585938 11.046875 -11.609375 C 10.929688 -11.640625 10.816406 -11.679688 10.703125 -11.734375 C 10.359375 -11.890625 9.992188 -12.007812 9.609375 -12.09375 C 9.222656 -12.175781 8.816406 -12.21875 8.390625 -12.21875 C 7.484375 -12.21875 6.660156 -11.992188 5.921875 -11.546875 C 5.191406 -11.097656 4.609375 -10.492188 4.171875 -9.734375 C 3.734375 -8.984375 3.515625 -8.15625 3.515625 -7.25 C 3.515625 -6.351562 3.734375 -5.523438 4.171875 -4.765625 C 4.609375 -4.003906 5.191406 -3.398438 5.921875 -2.953125 C 6.660156 -2.503906 7.484375 -2.28125 8.390625 -2.28125 C 8.796875 -2.28125 9.25 -2.320312 9.75 -2.40625 C 10.25 -2.488281 10.65625 -2.597656 10.96875 -2.734375 L 10.78125 -2.109375 L 10.78125 -5.65625 L 11.140625 -5.34375 L 8.84375 -5.34375 C 8.476562 -5.34375 8.175781 -5.457031 7.9375 -5.6875 C 7.695312 -5.925781 7.578125 -6.222656 7.578125 -6.578125 C 7.578125 -6.941406 7.695312 -7.238281 7.9375 -7.46875 C 8.175781 -7.707031 8.476562 -7.828125 8.84375 -7.828125 L 12.234375 -7.828125 C 12.597656 -7.828125 12.894531 -7.703125 13.125 -7.453125 C 13.363281 -7.210938 13.484375 -6.914062 13.484375 -6.5625 L 13.484375 -2.171875 C 13.484375 -1.898438 13.414062 -1.671875 13.28125 -1.484375 C 13.144531 -1.304688 12.992188 -1.164062 12.828125 -1.0625 C 12.203125 -0.664062 11.507812 -0.351562 10.75 -0.125 C 10 0.09375 9.210938 0.203125 8.390625 0.203125 Z M 8.390625 0.203125" transform="translate(1.46658, 20.98078)" style="fill: inherit;"/></g></g></g><g><g><g><path d="M 3.046875 0 C 2.660156 0 2.3125 -0.117188 2 -0.359375 C 1.695312 -0.597656 1.546875 -0.898438 1.546875 -1.265625 L 1.546875 -13.234375 C 1.546875 -13.585938 1.664062 -13.882812 1.90625 -14.125 C 2.15625 -14.363281 2.457031 -14.484375 2.8125 -14.484375 L 8.78125 -14.484375 C 9.5 -14.484375 10.171875 -14.296875 10.796875 -13.921875 C 11.421875 -13.546875 11.925781 -13.019531 12.3125 -12.34375 C 12.695312 -11.675781 12.890625 -10.910156 12.890625 -10.046875 C 12.890625 -9.515625 12.78125 -9 12.5625 -8.5 C 12.351562 -8.007812 12.066406 -7.5625 11.703125 -7.15625 C 11.335938 -6.757812 10.925781 -6.453125 10.46875 -6.234375 L 10.5 -6.703125 C 10.882812 -6.492188 11.203125 -6.25 11.453125 -5.96875 C 11.710938 -5.6875 11.914062 -5.382812 12.0625 -5.0625 C 12.207031 -4.738281 12.289062 -4.390625 12.3125 -4.015625 C 12.375 -3.671875 12.414062 -3.367188 12.4375 -3.109375 C 12.457031 -2.847656 12.5 -2.625 12.5625 -2.4375 C 12.625 -2.257812 12.742188 -2.125 12.921875 -2.03125 C 13.222656 -1.851562 13.410156 -1.59375 13.484375 -1.25 C 13.566406 -0.914062 13.488281 -0.617188 13.25 -0.359375 C 13.09375 -0.171875 12.894531 -0.0507812 12.65625 0 C 12.425781 0.0390625 12.191406 0.0390625 11.953125 0 C 11.722656 -0.0507812 11.535156 -0.117188 11.390625 -0.203125 C 11.148438 -0.335938 10.910156 -0.539062 10.671875 -0.8125 C 10.441406 -1.082031 10.253906 -1.445312 10.109375 -1.90625 C 9.960938 -2.363281 9.890625 -2.953125 9.890625 -3.671875 C 9.890625 -3.898438 9.847656 -4.113281 9.765625 -4.3125 C 9.679688 -4.507812 9.5625 -4.679688 9.40625 -4.828125 C 9.257812 -4.972656 9.066406 -5.082031 8.828125 -5.15625 C 8.597656 -5.238281 8.328125 -5.28125 8.015625 -5.28125 L 3.828125 -5.28125 L 4.140625 -5.75 L 4.140625 -1.265625 C 4.140625 -0.898438 4.039062 -0.597656 3.84375 -0.359375 C 3.65625 -0.117188 3.390625 0 3.046875 0 Z M 3.84375 -7.40625 L 8.671875 -7.40625 C 8.921875 -7.40625 9.160156 -7.519531 9.390625 -7.75 C 9.628906 -7.976562 9.820312 -8.289062 9.96875 -8.6875 C 10.125 -9.082031 10.203125 -9.515625 10.203125 -9.984375 C 10.203125 -10.585938 10.039062 -11.09375 9.71875 -11.5 C 9.394531 -11.90625 9.046875 -12.109375 8.671875 -12.109375 L 3.890625 -12.109375 L 4.140625 -12.78125 L 4.140625 -6.921875 Z M 3.84375 -7.40625" transform="translate(18.599043, 20.98078)" style="fill: inherit;"/></g></g></g><g><g><g><path d="M 6.875 -11.234375 L 2.40625 -0.71875 C 2.300781 -0.457031 2.148438 -0.253906 1.953125 -0.109375 C 1.753906 0.0351562 1.535156 0.109375 1.296875 0.109375 C 0.929688 0.109375 0.65625 0.00390625 0.46875 -0.203125 C 0.289062 -0.410156 0.203125 -0.664062 0.203125 -0.96875 C 0.203125 -1.09375 0.222656 -1.222656 0.265625 -1.359375 L 5.421875 -13.75 C 5.535156 -14.019531 5.703125 -14.226562 5.921875 -14.375 C 6.148438 -14.53125 6.398438 -14.597656 6.671875 -14.578125 C 6.910156 -14.578125 7.140625 -14.503906 7.359375 -14.359375 C 7.578125 -14.210938 7.734375 -14.007812 7.828125 -13.75 L 12.921875 -1.609375 C 12.984375 -1.429688 13.015625 -1.269531 13.015625 -1.125 C 13.015625 -0.75 12.894531 -0.445312 12.65625 -0.21875 C 12.414062 0 12.148438 0.109375 11.859375 0.109375 C 11.609375 0.109375 11.382812 0.03125 11.1875 -0.125 C 10.988281 -0.28125 10.832031 -0.488281 10.71875 -0.75 L 6.265625 -11.125 Z M 3.046875 -3.25 L 4.1875 -5.625 L 9.765625 -5.625 L 10.171875 -3.25 Z M 6.6875 -15.28125 C 6.425781 -15.28125 6.210938 -15.347656 6.046875 -15.484375 C 5.890625 -15.617188 5.8125 -15.800781 5.8125 -16.03125 C 5.8125 -16.125 5.835938 -16.210938 5.890625 -16.296875 C 5.941406 -16.390625 6.015625 -16.484375 6.109375 -16.578125 L 7.890625 -18.15625 C 8.035156 -18.28125 8.195312 -18.382812 8.375 -18.46875 C 8.550781 -18.5625 8.726562 -18.609375 8.90625 -18.609375 C 9.132812 -18.609375 9.375 -18.519531 9.625 -18.34375 C 9.875 -18.164062 10 -17.914062 10 -17.59375 C 10 -17.382812 9.929688 -17.179688 9.796875 -16.984375 C 9.671875 -16.785156 9.484375 -16.625 9.234375 -16.5 L 7.15625 -15.40625 C 7.082031 -15.34375 7.003906 -15.304688 6.921875 -15.296875 C 6.835938 -15.285156 6.757812 -15.28125 6.6875 -15.28125 Z M 6.6875 -15.28125" transform="translate(35.545308, 20.98078)" style="fill: inherit;"/></g></g></g><g><g><g><path d="M 2.859375 0 C 2.472656 0 2.15625 -0.117188 1.90625 -0.359375 C 1.664062 -0.597656 1.546875 -0.898438 1.546875 -1.265625 L 1.546875 -13.234375 C 1.546875 -13.585938 1.664062 -13.882812 1.90625 -14.125 C 2.15625 -14.363281 2.457031 -14.484375 2.8125 -14.484375 L 9.546875 -14.484375 C 9.898438 -14.484375 10.195312 -14.367188 10.4375 -14.140625 C 10.6875 -13.921875 10.8125 -13.628906 10.8125 -13.265625 C 10.8125 -12.960938 10.6875 -12.691406 10.4375 -12.453125 C 10.195312 -12.222656 9.898438 -12.109375 9.546875 -12.109375 L 3.953125 -12.109375 L 4.140625 -12.359375 L 4.140625 -8.203125 L 4 -8.46875 L 8.609375 -8.46875 C 8.972656 -8.46875 9.273438 -8.351562 9.515625 -8.125 C 9.753906 -7.894531 9.875 -7.601562 9.875 -7.25 C 9.875 -6.945312 9.753906 -6.675781 9.515625 -6.4375 C 9.273438 -6.207031 8.972656 -6.09375 8.609375 -6.09375 L 3.953125 -6.09375 L 4.140625 -6.265625 L 4.140625 -1.265625 C 4.140625 -0.898438 4.007812 -0.597656 3.75 -0.359375 C 3.5 -0.117188 3.203125 0 2.859375 0 Z M 2.859375 0" transform="translate(51.498467, 20.98078)" style="fill: inherit;"/></g></g></g><g><g><g><path d="M 4.140625 -1.265625 C 4.140625 -0.898438 4.007812 -0.597656 3.75 -0.359375 C 3.488281 -0.117188 3.1875 0 2.84375 0 C 2.445312 0 2.128906 -0.117188 1.890625 -0.359375 C 1.660156 -0.597656 1.546875 -0.898438 1.546875 -1.265625 L 1.546875 -13.234375 C 1.546875 -13.585938 1.671875 -13.882812 1.921875 -14.125 C 2.171875 -14.363281 2.488281 -14.484375 2.875 -14.484375 C 3.207031 -14.484375 3.5 -14.363281 3.75 -14.125 C 4.007812 -13.882812 4.140625 -13.585938 4.140625 -13.234375 Z M 4.140625 -1.265625" transform="translate(65.858524, 20.98078)" style="fill: inherit;"/></g></g></g><g><g><g><path d="M 11.703125 -13.78125 C 12.054688 -13.601562 12.265625 -13.320312 12.328125 -12.9375 C 12.390625 -12.550781 12.289062 -12.203125 12.03125 -11.890625 C 11.851562 -11.640625 11.617188 -11.5 11.328125 -11.46875 C 11.046875 -11.4375 10.757812 -11.492188 10.46875 -11.640625 C 10.144531 -11.785156 9.796875 -11.898438 9.421875 -11.984375 C 9.054688 -12.066406 8.675781 -12.109375 8.28125 -12.109375 C 7.53125 -12.109375 6.863281 -11.988281 6.28125 -11.75 C 5.695312 -11.519531 5.195312 -11.1875 4.78125 -10.75 C 4.363281 -10.320312 4.046875 -9.8125 3.828125 -9.21875 C 3.617188 -8.625 3.515625 -7.96875 3.515625 -7.25 C 3.515625 -6.40625 3.632812 -5.671875 3.875 -5.046875 C 4.125 -4.429688 4.460938 -3.914062 4.890625 -3.5 C 5.316406 -3.082031 5.816406 -2.773438 6.390625 -2.578125 C 6.972656 -2.378906 7.601562 -2.28125 8.28125 -2.28125 C 8.65625 -2.28125 9.023438 -2.3125 9.390625 -2.375 C 9.765625 -2.445312 10.125 -2.570312 10.46875 -2.75 C 10.757812 -2.882812 11.046875 -2.929688 11.328125 -2.890625 C 11.617188 -2.859375 11.859375 -2.71875 12.046875 -2.46875 C 12.328125 -2.125 12.425781 -1.765625 12.34375 -1.390625 C 12.269531 -1.023438 12.0625 -0.757812 11.71875 -0.59375 C 11.351562 -0.414062 10.984375 -0.269531 10.609375 -0.15625 C 10.234375 -0.0390625 9.847656 0.046875 9.453125 0.109375 C 9.066406 0.171875 8.675781 0.203125 8.28125 0.203125 C 7.289062 0.203125 6.347656 0.046875 5.453125 -0.265625 C 4.566406 -0.585938 3.773438 -1.054688 3.078125 -1.671875 C 2.378906 -2.296875 1.828125 -3.070312 1.421875 -4 C 1.023438 -4.9375 0.828125 -6.019531 0.828125 -7.25 C 0.828125 -8.3125 1.007812 -9.289062 1.375 -10.1875 C 1.738281 -11.082031 2.253906 -11.859375 2.921875 -12.515625 C 3.597656 -13.171875 4.390625 -13.679688 5.296875 -14.046875 C 6.210938 -14.410156 7.207031 -14.59375 8.28125 -14.59375 C 8.882812 -14.59375 9.476562 -14.523438 10.0625 -14.390625 C 10.644531 -14.253906 11.191406 -14.050781 11.703125 -13.78125 Z M 11.703125 -13.78125" transform="translate(74.280647, 20.98078)" style="fill: inherit;"/></g></g></g><g><g><g><path d="M 6.875 -11.234375 L 2.40625 -0.71875 C 2.300781 -0.457031 2.148438 -0.253906 1.953125 -0.109375 C 1.753906 0.0351562 1.535156 0.109375 1.296875 0.109375 C 0.929688 0.109375 0.65625 0.00390625 0.46875 -0.203125 C 0.289062 -0.410156 0.203125 -0.664062 0.203125 -0.96875 C 0.203125 -1.09375 0.222656 -1.222656 0.265625 -1.359375 L 5.421875 -13.75 C 5.535156 -14.019531 5.703125 -14.226562 5.921875 -14.375 C 6.148438 -14.53125 6.398438 -14.597656 6.671875 -14.578125 C 6.910156 -14.578125 7.140625 -14.503906 7.359375 -14.359375 C 7.578125 -14.210938 7.734375 -14.007812 7.828125 -13.75 L 12.921875 -1.609375 C 12.984375 -1.429688 13.015625 -1.269531 13.015625 -1.125 C 13.015625 -0.75 12.894531 -0.445312 12.65625 -0.21875 C 12.414062 0 12.148438 0.109375 11.859375 0.109375 C 11.609375 0.109375 11.382812 0.03125 11.1875 -0.125 C 10.988281 -0.28125 10.832031 -0.488281 10.71875 -0.75 L 6.265625 -11.125 Z M 3.046875 -3.25 L 4.1875 -5.625 L 9.765625 -5.625 L 10.171875 -3.25 Z M 3.046875 -3.25" transform="translate(89.985529, 20.98078)" style="fill: inherit;"/></g></g></g><g><g><g><path d="M 2.8125 -14.484375 L 9.75 -14.484375 C 10.113281 -14.484375 10.414062 -14.367188 10.65625 -14.140625 C 10.894531 -13.921875 11.015625 -13.628906 11.015625 -13.265625 C 11.015625 -12.921875 10.894531 -12.640625 10.65625 -12.421875 C 10.414062 -12.210938 10.113281 -12.109375 9.75 -12.109375 L 3.953125 -12.109375 L 4.140625 -12.46875 L 4.140625 -8.421875 L 3.96875 -8.59375 L 8.8125 -8.59375 C 9.175781 -8.59375 9.476562 -8.476562 9.71875 -8.25 C 9.957031 -8.019531 10.078125 -7.726562 10.078125 -7.375 C 10.078125 -7.03125 9.957031 -6.75 9.71875 -6.53125 C 9.476562 -6.3125 9.175781 -6.203125 8.8125 -6.203125 L 4.03125 -6.203125 L 4.140625 -6.375 L 4.140625 -2.1875 L 3.96875 -2.375 L 9.75 -2.375 C 10.113281 -2.375 10.414062 -2.253906 10.65625 -2.015625 C 10.894531 -1.773438 11.015625 -1.5 11.015625 -1.1875 C 11.015625 -0.832031 10.894531 -0.546875 10.65625 -0.328125 C 10.414062 -0.109375 10.113281 0 9.75 0 L 2.8125 0 C 2.457031 0 2.15625 -0.117188 1.90625 -0.359375 C 1.664062 -0.597656 1.546875 -0.898438 1.546875 -1.265625 L 1.546875 -13.234375 C 1.546875 -13.585938 1.664062 -13.882812 1.90625 -14.125 C 2.15625 -14.363281 2.457031 -14.484375 2.8125 -14.484375 Z M 2.8125 -14.484375" transform="translate(114.464268, 20.98078)" style="fill: inherit;"/></g></g></g><g><g><g><path d="M 7.765625 -14.484375 C 8.753906 -14.484375 9.632812 -14.296875 10.40625 -13.921875 C 11.1875 -13.554688 11.84375 -13.035156 12.375 -12.359375 C 12.90625 -11.691406 13.300781 -10.921875 13.5625 -10.046875 C 13.832031 -9.171875 13.96875 -8.238281 13.96875 -7.25 C 13.96875 -5.90625 13.726562 -4.6875 13.25 -3.59375 C 12.769531 -2.5 12.066406 -1.625 11.140625 -0.96875 C 10.222656 -0.320312 9.097656 0 7.765625 0 L 2.8125 0 C 2.457031 0 2.15625 -0.117188 1.90625 -0.359375 C 1.664062 -0.597656 1.546875 -0.898438 1.546875 -1.265625 L 1.546875 -13.234375 C 1.546875 -13.585938 1.664062 -13.882812 1.90625 -14.125 C 2.15625 -14.363281 2.457031 -14.484375 2.8125 -14.484375 Z M 7.5625 -2.375 C 8.425781 -2.375 9.132812 -2.597656 9.6875 -3.046875 C 10.238281 -3.492188 10.640625 -4.085938 10.890625 -4.828125 C 11.148438 -5.566406 11.28125 -6.375 11.28125 -7.25 C 11.28125 -7.894531 11.207031 -8.507812 11.0625 -9.09375 C 10.914062 -9.6875 10.691406 -10.207031 10.390625 -10.65625 C 10.085938 -11.101562 9.703125 -11.457031 9.234375 -11.71875 C 8.765625 -11.976562 8.207031 -12.109375 7.5625 -12.109375 L 3.9375 -12.109375 L 4.140625 -12.296875 L 4.140625 -2.15625 L 4.015625 -2.375 Z M 7.5625 -2.375" transform="translate(137.556805, 20.98078)" style="fill: inherit;"/></g></g></g><g><g><g><path d="M 2.8125 -14.484375 L 9.75 -14.484375 C 10.113281 -14.484375 10.414062 -14.367188 10.65625 -14.140625 C 10.894531 -13.921875 11.015625 -13.628906 11.015625 -13.265625 C 11.015625 -12.921875 10.894531 -12.640625 10.65625 -12.421875 C 10.414062 -12.210938 10.113281 -12.109375 9.75 -12.109375 L 3.953125 -12.109375 L 4.140625 -12.46875 L 4.140625 -8.421875 L 3.96875 -8.59375 L 8.8125 -8.59375 C 9.175781 -8.59375 9.476562 -8.476562 9.71875 -8.25 C 9.957031 -8.019531 10.078125 -7.726562 10.078125 -7.375 C 10.078125 -7.03125 9.957031 -6.75 9.71875 -6.53125 C 9.476562 -6.3125 9.175781 -6.203125 8.8125 -6.203125 L 4.03125 -6.203125 L 4.140625 -6.375 L 4.140625 -2.1875 L 3.96875 -2.375 L 9.75 -2.375 C 10.113281 -2.375 10.414062 -2.253906 10.65625 -2.015625 C 10.894531 -1.773438 11.015625 -1.5 11.015625 -1.1875 C 11.015625 -0.832031 10.894531 -0.546875 10.65625 -0.328125 C 10.414062 -0.109375 10.113281 0 9.75 0 L 2.8125 0 C 2.457031 0 2.15625 -0.117188 1.90625 -0.359375 C 1.664062 -0.597656 1.546875 -0.898438 1.546875 -1.265625 L 1.546875 -13.234375 C 1.546875 -13.585938 1.664062 -13.882812 1.90625 -14.125 C 2.15625 -14.363281 2.457031 -14.484375 2.8125 -14.484375 Z M 2.8125 -14.484375" transform="translate(155.082378, 20.98078)" style="fill: inherit;"/></g></g></g><g><g><g><path d="M 6.203125 0.203125 C 5.242188 0.203125 4.375 0.0820312 3.59375 -0.15625 C 2.820312 -0.394531 2.085938 -0.816406 1.390625 -1.421875 C 1.210938 -1.578125 1.070312 -1.75 0.96875 -1.9375 C 0.875 -2.132812 0.828125 -2.332031 0.828125 -2.53125 C 0.828125 -2.84375 0.941406 -3.117188 1.171875 -3.359375 C 1.398438 -3.597656 1.6875 -3.71875 2.03125 -3.71875 C 2.289062 -3.71875 2.523438 -3.640625 2.734375 -3.484375 C 3.253906 -3.054688 3.773438 -2.726562 4.296875 -2.5 C 4.816406 -2.28125 5.453125 -2.171875 6.203125 -2.171875 C 6.722656 -2.171875 7.195312 -2.25 7.625 -2.40625 C 8.050781 -2.570312 8.394531 -2.785156 8.65625 -3.046875 C 8.914062 -3.316406 9.046875 -3.625 9.046875 -3.96875 C 9.046875 -4.382812 8.921875 -4.738281 8.671875 -5.03125 C 8.421875 -5.320312 8.039062 -5.566406 7.53125 -5.765625 C 7.019531 -5.960938 6.375 -6.117188 5.59375 -6.234375 C 4.84375 -6.335938 4.1875 -6.503906 3.625 -6.734375 C 3.0625 -6.960938 2.585938 -7.253906 2.203125 -7.609375 C 1.828125 -7.960938 1.539062 -8.375 1.34375 -8.84375 C 1.15625 -9.320312 1.0625 -9.859375 1.0625 -10.453125 C 1.0625 -11.347656 1.289062 -12.113281 1.75 -12.75 C 2.207031 -13.382812 2.828125 -13.867188 3.609375 -14.203125 C 4.398438 -14.535156 5.273438 -14.703125 6.234375 -14.703125 C 7.128906 -14.703125 7.957031 -14.566406 8.71875 -14.296875 C 9.488281 -14.023438 10.113281 -13.679688 10.59375 -13.265625 C 11 -12.953125 11.203125 -12.585938 11.203125 -12.171875 C 11.203125 -11.867188 11.082031 -11.59375 10.84375 -11.34375 C 10.613281 -11.09375 10.335938 -10.96875 10.015625 -10.96875 C 9.804688 -10.96875 9.625 -11.03125 9.46875 -11.15625 C 9.238281 -11.351562 8.9375 -11.535156 8.5625 -11.703125 C 8.195312 -11.878906 7.804688 -12.023438 7.390625 -12.140625 C 6.972656 -12.253906 6.585938 -12.3125 6.234375 -12.3125 C 5.640625 -12.3125 5.140625 -12.234375 4.734375 -12.078125 C 4.328125 -11.929688 4.019531 -11.726562 3.8125 -11.46875 C 3.601562 -11.207031 3.5 -10.90625 3.5 -10.5625 C 3.5 -10.144531 3.617188 -9.800781 3.859375 -9.53125 C 4.097656 -9.257812 4.445312 -9.046875 4.90625 -8.890625 C 5.363281 -8.734375 5.910156 -8.59375 6.546875 -8.46875 C 7.367188 -8.3125 8.09375 -8.128906 8.71875 -7.921875 C 9.351562 -7.722656 9.875 -7.457031 10.28125 -7.125 C 10.695312 -6.800781 11.007812 -6.394531 11.21875 -5.90625 C 11.425781 -5.414062 11.53125 -4.820312 11.53125 -4.125 C 11.53125 -3.226562 11.28125 -2.453125 10.78125 -1.796875 C 10.289062 -1.148438 9.640625 -0.65625 8.828125 -0.3125 C 8.023438 0.03125 7.148438 0.203125 6.203125 0.203125 Z M 6.203125 0.203125" transform="translate(169.649334, 20.98078)" style="fill: inherit;"/></g></g></g><g><g><g><path d="M 4.140625 -1.265625 C 4.140625 -0.898438 4.007812 -0.597656 3.75 -0.359375 C 3.488281 -0.117188 3.1875 0 2.84375 0 C 2.445312 0 2.128906 -0.117188 1.890625 -0.359375 C 1.660156 -0.597656 1.546875 -0.898438 1.546875 -1.265625 L 1.546875 -13.234375 C 1.546875 -13.585938 1.671875 -13.882812 1.921875 -14.125 C 2.171875 -14.363281 2.488281 -14.484375 2.875 -14.484375 C 3.207031 -14.484375 3.5 -14.363281 3.75 -14.125 C 4.007812 -13.882812 4.140625 -13.585938 4.140625 -13.234375 Z M 4.140625 -1.265625" transform="translate(184.733533, 20.98078)" style="fill: inherit;"/></g></g></g><g><g><g><path d="M 8.390625 0.203125 C 7.335938 0.203125 6.351562 0.0078125 5.4375 -0.375 C 4.53125 -0.757812 3.734375 -1.289062 3.046875 -1.96875 C 2.359375 -2.65625 1.816406 -3.445312 1.421875 -4.34375 C 1.023438 -5.238281 0.828125 -6.207031 0.828125 -7.25 C 0.828125 -8.28125 1.023438 -9.242188 1.421875 -10.140625 C 1.816406 -11.035156 2.359375 -11.828125 3.046875 -12.515625 C 3.734375 -13.203125 4.53125 -13.738281 5.4375 -14.125 C 6.351562 -14.507812 7.335938 -14.703125 8.390625 -14.703125 C 9.035156 -14.703125 9.660156 -14.628906 10.265625 -14.484375 C 10.867188 -14.347656 11.429688 -14.144531 11.953125 -13.875 C 12.148438 -13.757812 12.300781 -13.609375 12.40625 -13.421875 C 12.507812 -13.234375 12.5625 -13.046875 12.5625 -12.859375 C 12.5625 -12.523438 12.453125 -12.226562 12.234375 -11.96875 C 12.015625 -11.707031 11.734375 -11.578125 11.390625 -11.578125 C 11.273438 -11.578125 11.160156 -11.585938 11.046875 -11.609375 C 10.929688 -11.640625 10.816406 -11.679688 10.703125 -11.734375 C 10.359375 -11.890625 9.992188 -12.007812 9.609375 -12.09375 C 9.222656 -12.175781 8.816406 -12.21875 8.390625 -12.21875 C 7.484375 -12.21875 6.660156 -11.992188 5.921875 -11.546875 C 5.191406 -11.097656 4.609375 -10.492188 4.171875 -9.734375 C 3.734375 -8.984375 3.515625 -8.15625 3.515625 -7.25 C 3.515625 -6.351562 3.734375 -5.523438 4.171875 -4.765625 C 4.609375 -4.003906 5.191406 -3.398438 5.921875 -2.953125 C 6.660156 -2.503906 7.484375 -2.28125 8.390625 -2.28125 C 8.796875 -2.28125 9.25 -2.320312 9.75 -2.40625 C 10.25 -2.488281 10.65625 -2.597656 10.96875 -2.734375 L 10.78125 -2.109375 L 10.78125 -5.65625 L 11.140625 -5.34375 L 8.84375 -5.34375 C 8.476562 -5.34375 8.175781 -5.457031 7.9375 -5.6875 C 7.695312 -5.925781 7.578125 -6.222656 7.578125 -6.578125 C 7.578125 -6.941406 7.695312 -7.238281 7.9375 -7.46875 C 8.175781 -7.707031 8.476562 -7.828125 8.84375 -7.828125 L 12.234375 -7.828125 C 12.597656 -7.828125 12.894531 -7.703125 13.125 -7.453125 C 13.363281 -7.210938 13.484375 -6.914062 13.484375 -6.5625 L 13.484375 -2.171875 C 13.484375 -1.898438 13.414062 -1.671875 13.28125 -1.484375 C 13.144531 -1.304688 12.992188 -1.164062 12.828125 -1.0625 C 12.203125 -0.664062 11.507812 -0.351562 10.75 -0.125 C 10 0.09375 9.210938 0.203125 8.390625 0.203125 Z M 8.390625 0.203125" transform="translate(193.155655, 20.98078)" style="fill: inherit;"/></g></g></g><g><g><g><path d="M 12.546875 -14.484375 C 12.878906 -14.484375 13.144531 -14.375 13.34375 -14.15625 C 13.550781 -13.9375 13.65625 -13.660156 13.65625 -13.328125 L 13.65625 -1.265625 C 13.65625 -0.898438 13.535156 -0.597656 13.296875 -0.359375 C 13.054688 -0.117188 12.757812 0 12.40625 0 C 12.21875 0 12.03125 -0.03125 11.84375 -0.09375 C 11.664062 -0.15625 11.523438 -0.242188 11.421875 -0.359375 L 3.296875 -10.6875 L 3.828125 -11.015625 L 3.828125 -1.15625 C 3.828125 -0.820312 3.71875 -0.546875 3.5 -0.328125 C 3.289062 -0.109375 3.015625 0 2.671875 0 C 2.335938 0 2.066406 -0.109375 1.859375 -0.328125 C 1.648438 -0.546875 1.546875 -0.820312 1.546875 -1.15625 L 1.546875 -13.234375 C 1.546875 -13.585938 1.664062 -13.882812 1.90625 -14.125 C 2.15625 -14.363281 2.457031 -14.484375 2.8125 -14.484375 C 3.007812 -14.484375 3.207031 -14.445312 3.40625 -14.375 C 3.613281 -14.300781 3.769531 -14.1875 3.875 -14.03125 L 11.765625 -3.96875 L 11.40625 -3.71875 L 11.40625 -13.328125 C 11.40625 -13.660156 11.507812 -13.9375 11.71875 -14.15625 C 11.925781 -14.375 12.203125 -14.484375 12.546875 -14.484375 Z M 12.546875 -14.484375" transform="translate(210.288118, 20.98078)" style="fill: inherit;"/></g></g></g></g></g><g clip-path="url(#__id5_s7joa0k1w)"><g><g clip-path="url(#__id10_s7joa0k1w)" transform="matrix(1, 0, 0, 1, 137, 255)"><g clip-path="url(#__id6_s7joa0k1w)"><path d="M 17.988281 119.96875 L 0.902344 119.96875 L 0.902344 111.417969 L 17.988281 111.417969 Z M 17.988281 107.792969 L 0.902344 107.792969 L 0.902344 81.882812 L 17.988281 81.882812 Z M 0.902344 0.773438 L 17.988281 0.773438 L 17.988281 74.582031 L 0.902344 74.582031 Z M 0.902344 0.773438" fill-rule="evenodd" style="fill: rgb(0, 174, 239);"/></g><g clip-path="url(#__id7_s7joa0k1w)"><path d="M 41.542969 119.96875 L 24.457031 119.96875 L 24.457031 111.417969 L 41.542969 111.417969 Z M 41.542969 107.792969 L 24.457031 107.792969 L 24.457031 81.882812 L 41.542969 81.882812 Z M 24.457031 27.261719 L 41.542969 27.261719 L 41.542969 74.582031 L 24.457031 74.582031 Z M 24.457031 27.261719" fill-rule="evenodd" style="fill: rgb(236, 0, 140);"/></g><g clip-path="url(#__id8_s7joa0k1w)"><path d="M 65.097656 119.96875 L 48.011719 119.96875 L 48.011719 111.417969 L 65.097656 111.417969 Z M 65.097656 107.792969 L 48.011719 107.792969 L 48.011719 81.882812 L 65.097656 81.882812 Z M 48.011719 0.773438 L 65.097656 0.773438 L 65.097656 74.582031 L 48.011719 74.582031 Z M 48.011719 0.773438" fill-rule="evenodd" style="fill: rgb(255, 242, 0);"/></g><g clip-path="url(#__id9_s7joa0k1w)"><path d="M 88.652344 119.96875 L 71.566406 119.96875 L 71.566406 111.417969 L 88.652344 111.417969 Z M 88.652344 107.792969 L 71.566406 107.792969 L 71.566406 81.882812 L 88.652344 81.882812 Z M 71.566406 44.710938 L 88.652344 44.710938 L 88.652344 74.582031 L 71.566406 74.582031 Z M 71.566406 44.710938" fill-rule="evenodd" style="fill: rgb(35, 31, 32);"/></g></g></g></g></svg>